# xmcd
# 
# Track frame offsets:
#     183
#     18978
#     40253
#     57543
#     73730
#     94723
#     110143
#     126048
#     149298
#     169788
#     200048
#     215925
#     229243
#     248758
# 
# Disc length: 3488
# 
# Revision: 8
# Processed by: cddbd v1.5.2PL0 Copyright (c) Steve Scherf et al.
# Submitted via: fre:ac v1.0.17
# 
DISCID=d90d9e0e
DTITLE=Various Artist - Arkansas Traveler
DYEAR=1992
DGENRE=Folk-Rock
TTITLE0=Michelle Shocked - 33 RPM Soul
TTITLE1=Michelle Shocked - Come A Long Way
TTITLE2=Michelle Shocked - Secret To A Long Life
TTITLE3=Michelle Shocked and The Red Clay Ramblers - Contest Coming (Cripple Creek)
TTITLE4=Michelle Shocked and The Hothouse Flowers - Over The Waterfall
TTITLE5=Michelle Shocked and Uncle Tupelo - Shaking Hands (Soldier's Joy)
TTITLE6=Michelle Shocked with Taj Mahal - Jump Jim Crow - Zip-A-Dee-Doo-Dah
TTITLE7=Michelle Shocked with Clarence Gatemouth Brown and Gate's Express - Hold Me Back (Frankie and Johnny)
TTITLE8=Michelle Shocked - Strawberry Jam
TTITLE9=Michelle Shocked with Alison Krauss and Union Station - Prodigal Daughter (Cotton Eyed Joe)
TTITLE10=Michelle Shocked and The Rising Fawn String Ensemble - Blackberry Blossom
TTITLE11=Michelle Shocked and The Messengers - Weaving Way
TTITLE12=Michelle Shocked with Jimmie Driftwood - Arkansas Traveler
TTITLE13=Michelle Shocked and Dollars, Taxes - Woody's Rag
EXTD=YEAR: 1992
EXTT0=
EXTT1=
EXTT2=
EXTT3=
EXTT4=
EXTT5=
EXTT6=
EXTT7=
EXTT8=
EXTT9=
EXTT10=
EXTT11=
EXTT12=
EXTT13=
PLAYORDER=
